<svg xmlns="http://www.w3.org/2000/svg" width="91" height="62" viewBox="0 0 91 62">
    <g fill="none" fill-rule="evenodd">
        <path fill="#242641" fill-rule="nonzero" d="M0 11.58h6.042v26.504H0V11.58zm27.289 16.292c0-3.671-1.369-5.507-4.106-5.507-.594 0-1.181.076-1.762.23-.581.152-1.053.344-1.414.573v10.365c.284.05.645.095 1.084.133.44.039.917.058 1.433.058 1.576 0 2.763-.536 3.564-1.606.8-1.071 1.2-2.486 1.2-4.246zm5.887.153c0 1.607-.239 3.06-.717 4.36-.477 1.3-1.168 2.41-2.072 3.328-.904.917-2.014 1.625-3.33 2.122-1.318.497-2.815.746-4.494.746-.697 0-1.426-.032-2.188-.096a41.687 41.687 0 0 1-2.247-.248 31.438 31.438 0 0 1-2.11-.364 22.603 22.603 0 0 1-1.782-.44V9.324l5.77-.917v10.02a10.91 10.91 0 0 1 2.015-.65 10.47 10.47 0 0 1 2.246-.23c1.446 0 2.725.249 3.835.746a7.498 7.498 0 0 1 2.789 2.123c.748.917 1.317 2.02 1.704 3.308.387 1.287.58 2.721.58 4.302zm12.609 10.059h-5.771V17.967h5.77v20.117zM68.89 21.79a1805.3 1805.3 0 0 0-1.878 2.066 156.38 156.38 0 0 0-2.537 2.868 110.313 110.313 0 0 0-2.731 3.289 65.32 65.32 0 0 0-2.498 3.327h9.838v4.743H52.235v-3.366a39.596 39.596 0 0 1 1.956-2.964 98.092 98.092 0 0 1 2.402-3.193 178.53 178.53 0 0 1 4.783-5.852H52.7v-4.742h16.19v3.824zm13.655 12.315c.568 0 1.11-.012 1.627-.038.516-.025.93-.064 1.239-.115v-4.321a10.781 10.781 0 0 0-1.046-.153 11.582 11.582 0 0 0-2.808.02 4.035 4.035 0 0 0-1.259.362c-.361.179-.645.42-.852.727-.206.306-.31.688-.31 1.147 0 .892.304 1.51.91 1.855.607.344 1.44.516 2.499.516zm-.465-16.675c1.704 0 3.124.192 4.26.574 1.137.383 2.047.93 2.731 1.645.685.714 1.169 1.58 1.453 2.6.284 1.02.426 2.155.426 3.404V37.51c-.827.179-1.976.389-3.447.631-1.472.242-3.254.363-5.345.363-1.317 0-2.512-.114-3.583-.344-1.072-.23-1.995-.605-2.77-1.128a5.182 5.182 0 0 1-1.781-2.046c-.413-.841-.62-1.874-.62-3.098 0-1.173.239-2.167.717-2.983a5.477 5.477 0 0 1 1.917-1.95c.8-.485 1.717-.836 2.75-1.052a15.616 15.616 0 0 1 3.215-.325c.748 0 1.413.031 1.994.095a8.981 8.981 0 0 1 1.414.249v-.536c0-.969-.297-1.746-.89-2.333-.595-.586-1.628-.88-3.1-.88-.98 0-1.949.07-2.904.211-.956.14-1.782.338-2.48.593l-.735-4.59c.336-.101.755-.21 1.259-.325a22.448 22.448 0 0 1 1.646-.306c.594-.089 1.22-.165 1.878-.229a20.69 20.69 0 0 1 1.995-.096z"/>
        <path fill="#6F7486" fill-rule="nonzero" d="M.282 54.295c0-1.198.176-2.245.528-3.14.351-.894.818-1.637 1.398-2.227a5.684 5.684 0 0 1 2.006-1.33 6.335 6.335 0 0 1 2.322-.442c1.847 0 3.263.569 4.249 1.707.985 1.137 1.477 2.87 1.477 5.198v.404c0 .165-.008.317-.026.456H2.842c.105 1.407.518 2.475 1.24 3.205.721.73 1.847 1.094 3.378 1.094.862 0 1.587-.074 2.177-.221.59-.148 1.033-.291 1.332-.43l.343 2.032c-.299.157-.822.322-1.57.495-.747.174-1.596.261-2.546.261-1.197 0-2.23-.178-3.101-.534-.87-.356-1.588-.847-2.15-1.472A5.986 5.986 0 0 1 .69 57.123c-.273-.86-.41-1.803-.41-2.828zm9.42-1.328c.018-1.095-.259-1.994-.83-2.697-.572-.704-1.36-1.056-2.362-1.056-.563 0-1.06.109-1.491.326a3.51 3.51 0 0 0-1.096.847c-.299.347-.532.747-.699 1.199a5.852 5.852 0 0 0-.33 1.38h6.809zm9.975 6.331c1.003 0 1.746-.13 2.23-.39.484-.261.726-.678.726-1.251 0-.59-.238-1.06-.713-1.407-.475-.348-1.258-.739-2.348-1.173a36.038 36.038 0 0 1-1.518-.638 5.333 5.333 0 0 1-1.253-.769 3.361 3.361 0 0 1-.845-1.068c-.21-.417-.316-.93-.316-1.538 0-1.198.448-2.15 1.345-2.853.898-.703 2.12-1.055 3.669-1.055.387 0 .774.022 1.16.065.388.043.748.096 1.083.156.334.061.629.126.884.196s.453.13.593.182l-.448 2.085c-.264-.14-.678-.283-1.24-.43-.564-.148-1.24-.222-2.032-.222-.687 0-1.285.135-1.795.404-.51.27-.765.69-.765 1.264 0 .295.057.556.171.782.115.225.29.43.528.612.238.182.532.352.884.508.352.156.774.321 1.267.495.65.243 1.231.482 1.741.717.51.234.946.508 1.307.82.36.313.637.691.831 1.134.194.443.29.986.29 1.629 0 1.25-.47 2.197-1.412 2.84-.94.643-2.282.964-4.024.964-1.214 0-2.164-.1-2.85-.3-.686-.2-1.152-.351-1.399-.456l.45-2.084c.28.104.73.26 1.345.469.616.208 1.434.312 2.454.312zm11.558-11.803h5.199v2.032h-5.2v6.254c0 .677.054 1.237.16 1.68.105.443.263.79.474 1.043.211.252.475.43.792.534a3.55 3.55 0 0 0 1.108.156c.74 0 1.333-.082 1.781-.247.45-.165.761-.283.937-.352l.475 2.006c-.246.122-.677.274-1.293.456-.616.183-1.32.274-2.11.274-.933 0-1.703-.117-2.31-.352-.607-.234-1.095-.586-1.465-1.055-.369-.47-.628-1.047-.778-1.733-.15-.686-.224-1.48-.224-2.384v-12.09l2.454-.418v4.196zm13.642 11.803c.58 0 1.096-.013 1.544-.039a6.82 6.82 0 0 0 1.122-.143v-4.039c-.176-.087-.462-.16-.858-.221a9.659 9.659 0 0 0-1.438-.091c-.37 0-.761.026-1.174.078-.414.052-.792.16-1.135.325-.343.165-.63.391-.858.678-.229.287-.343.664-.343 1.133 0 .869.282 1.473.845 1.811.562.34 1.328.508 2.295.508zm-.21-12.142c.984 0 1.816.126 2.493.378.677.252 1.223.608 1.636 1.068a4.03 4.03 0 0 1 .884 1.642c.176.634.264 1.333.264 2.097v8.469l-.884.143c-.378.06-.805.117-1.28.17-.475.052-.99.1-1.544.143-.554.043-1.104.065-1.649.065a9.148 9.148 0 0 1-2.137-.235c-.651-.156-1.214-.403-1.69-.742a3.41 3.41 0 0 1-1.108-1.342c-.264-.556-.396-1.225-.396-2.007 0-.747.154-1.39.462-1.928a3.653 3.653 0 0 1 1.254-1.303c.528-.33 1.143-.573 1.847-.73a10.196 10.196 0 0 1 2.217-.234 9.225 9.225 0 0 1 1.517.143c.238.044.444.083.62.118.176.035.3.06.37.078v-.678c0-.399-.044-.794-.132-1.185a2.695 2.695 0 0 0-.475-1.042 2.4 2.4 0 0 0-.937-.73c-.396-.182-.91-.274-1.544-.274-.81 0-1.517.057-2.124.17-.607.113-1.06.23-1.36.352l-.29-2.007c.317-.139.845-.273 1.584-.404.739-.13 1.54-.195 2.401-.195zm12.322.339h5.199v2.032h-5.199v6.254c0 .677.053 1.237.159 1.68.105.443.264.79.475 1.043.21.252.475.43.791.534a3.55 3.55 0 0 0 1.109.156c.739 0 1.332-.082 1.78-.247.45-.165.762-.283.938-.352l.475 2.006c-.247.122-.678.274-1.293.456-.616.183-1.32.274-2.111.274-.933 0-1.703-.117-2.31-.352-.606-.234-1.095-.586-1.464-1.055-.37-.47-.629-1.047-.779-1.733-.15-.686-.224-1.48-.224-2.384v-12.09l2.454-.418v4.196zm7.97 6.8c0-1.198.175-2.245.527-3.14.352-.894.818-1.637 1.399-2.227a5.684 5.684 0 0 1 2.005-1.33 6.335 6.335 0 0 1 2.322-.442c1.848 0 3.264.569 4.249 1.707.985 1.137 1.478 2.87 1.478 5.198v.404c0 .165-.009.317-.027.456h-9.394c.105 1.407.519 2.475 1.24 3.205s1.847 1.094 3.378 1.094c.862 0 1.588-.074 2.177-.221.59-.148 1.034-.291 1.333-.43l.343 2.032c-.3.157-.823.322-1.57.495-.748.174-1.597.261-2.547.261-1.196 0-2.23-.178-3.1-.534-.871-.356-1.588-.847-2.151-1.472a5.986 5.986 0 0 1-1.254-2.228c-.273-.86-.409-1.803-.409-2.828zm9.42-1.328c.018-1.095-.26-1.994-.831-2.697-.572-.704-1.36-1.056-2.362-1.056-.563 0-1.06.109-1.491.326a3.51 3.51 0 0 0-1.095.847c-.3.347-.532.747-.7 1.199a5.852 5.852 0 0 0-.33 1.38h6.81zm9.974 6.331c1.003 0 1.747-.13 2.23-.39.484-.261.726-.678.726-1.251 0-.59-.237-1.06-.712-1.407-.475-.348-1.258-.739-2.35-1.173a36.038 36.038 0 0 1-1.516-.638 5.333 5.333 0 0 1-1.254-.769 3.361 3.361 0 0 1-.844-1.068c-.212-.417-.317-.93-.317-1.538 0-1.198.449-2.15 1.346-2.853.897-.703 2.12-1.055 3.668-1.055.387 0 .774.022 1.161.065.387.043.748.096 1.082.156.334.061.629.126.884.196s.453.13.594.182l-.449 2.085c-.264-.14-.677-.283-1.24-.43-.563-.148-1.24-.222-2.032-.222-.686 0-1.284.135-1.795.404-.51.27-.765.69-.765 1.264 0 .295.057.556.172.782.114.225.29.43.527.612.238.182.533.352.884.508.352.156.775.321 1.267.495.651.243 1.232.482 1.742.717.51.234.945.508 1.306.82.36.313.638.691.831 1.134.194.443.29.986.29 1.629 0 1.25-.47 2.197-1.411 2.84-.941.643-2.283.964-4.025.964-1.213 0-2.163-.1-2.85-.3-.686-.2-1.152-.351-1.398-.456l.448-2.084c.282.104.73.26 1.346.469.616.208 1.434.312 2.454.312z"/>
        <path fill="#242641" d="M39.924 10.083l5.831-1.677v6.256h-5.83z"/>
        <path fill="#CEC2A8" d="M26.985 14.668L46.594 0l44.374 14.668H63.724L46.594 3.96z"/>
    </g>
</svg>
